<svg id="Capa_1" data-name="Capa 1" xmlns="http://www.w3.org/2000/svg" viewBox="0 0 1782.46 1396.71"><defs><style>.cls-1{fill:#79a9f5;}.cls-2{fill:#ff6961;}.cls-3{fill:#4f4f4f;}.cls-4{fill:#e1f1ff;}.cls-5{font-size:120px;font-family:TimesNewRomanPSMT, Times New Roman;}</style></defs><path class="cls-1" d="M164.27,455.57c-5.4-28.6-8.1-59.4-8.1-92.2,0-76.9,14.9-143.3,44.4-197.4,2.7-5,5.6-9.8,8.5-14.6-56.7,37.2-133.9,116-154.8,276-34,260.8-130.6,506.5,63.2,506.5C265.77,933.87,127.87,655.77,164.27,455.57Z" transform="translate(806.22 28.71)"/><path class="cls-2" d="M922,427.37c-21.2-162.8-100.8-241.5-157.7-277.8,3.4,5.4,6.6,10.9,9.7,16.5,29.5,54,44.4,120.4,44.4,197.3a495.68,495.68,0,0,1-7.3,87.5c39.4,200.5-101.8,482.9,47.7,482.9C1052.57,933.87,956,688.17,922,427.37Z" transform="translate(806.22 28.71)"/><path class="cls-3" d="M492.07,42.37h-9.6c-24,0-133,4.7-210.6,85-45.8,47.4-80.8,121.2-80.8,236.1,0,4.5.1,8.9.2,13.3,1.8,76.3,19.6,132.9,45.5,174.9a201.09,201.09,0,0,1,23-37.1c20.4-26.6,46.2-49.2,71.1-71.2,24.8-21.8,48.2-42.4,62-63.2,12.5-18.8,15.3-34.7,9.3-53.2-24.8-76.8-4.9-127.7,16.1-156.8,23-31.8,52.3-44.7,55.5-46l13.5-5.6,13.5,5.6c3.3,1.4,32.6,14.2,55.6,46,21.1,29.1,40.9,80,16.1,156.8-6,18.5-3.2,34.5,9.3,53.2,13.9,20.8,37.3,41.4,62,63.2,24.9,21.9,50.7,44.6,71.1,71.2a203.08,203.08,0,0,1,22.9,37c26.2-42.5,44.1-100.1,45.5-177.8.1-3.4.1-6.8.1-10.3,0-113.3-34-186.7-78.9-234.1C626.87,47.17,516.27,42.37,492.07,42.37Zm-192.8,345.5a37.3,37.3,0,1,1,37.3-37.3A37.3,37.3,0,0,1,299.27,387.87Zm375,0a37.3,37.3,0,1,1,37.3-37.3A37.3,37.3,0,0,1,674.27,387.87Z" transform="translate(806.22 28.71)"/><path class="cls-4" d="M487.27,704.67l-1.6,1.3-62,48.7a114.28,114.28,0,0,0,127.4,0L489,706Z" transform="translate(806.22 28.71)"/><path d="M713.17,584.67c-31.5-106.8-209.9-157.5-174-268.6,39.2-121.7-51.9-159.7-51.9-159.7s-91.1,38-51.8,159.8c35.9,111.1-142.6,161.8-174,268.7-4.2,14.4-5.1,30.2-4.3,45.1,6.1,109.8,90.6,127.5,102.2,129.4h.5a2.79,2.79,0,0,0,1.8-.6l125.6-98.6,125.6,98.6a3,3,0,0,0,1.8.6h.5c11.6-1.9,96.2-19.6,102.3-129.6C718.37,614.87,717.47,599.07,713.17,584.67Zm-225.9,3.7s-32-8.6-57.8-27.1c-17.4-12.4-31.9-29.4-31.9-51.1,0-54.1,89.7-52.3,89.7-52.3s89.7-1.8,89.7,52.3c0,21.8-14.5,38.7-31.9,51.1C519.27,579.77,487.27,588.37,487.27,588.37Z" transform="translate(806.22 28.71)"/><text x="806.22" y="28.71"/><text class="cls-5" transform="translate(835.15 1140.55)">Csömöri Állatvédő <tspan x="90.09" y="144">Civil Szervezet</tspan></text></svg>